<svg width="28" height="28" viewBox="0 0 28 28" fill="none" xmlns="http://www.w3.org/2000/svg">
<path fill-rule="evenodd" clip-rule="evenodd" d="M22.6005 6.56628C23.1678 6.52148 23.6595 6.5 24 6.5C25.1554 6.5 25.712 8.15979 26.2451 9.74925C26.4842 10.4622 26.7185 11.1609 27 11.6894C27 12.9463 23.6736 14.5 22 14.5C20.5181 14.5 17.7402 10.6053 17.1234 8.84056C15.8494 8.3551 14.721 8 14 8C11.2386 8 9 7.20914 9 5C9 2.79086 13.2386 1 16 1C17.736 1 20.4509 3.76636 22.6005 6.56628Z" fill="#919191"/>
<path fill-rule="evenodd" clip-rule="evenodd" d="M9.5317 6.05595C9.8857 6.01895 10.2449 6 10.6083 6C15.469 6 19.5661 9.3898 20.821 14.0139C20.9215 14.0073 21.0225 14.0031 21.1241 14.0012C21.0828 14.0005 21.0414 14.0001 21 14.0001L20.9664 14.0002L22.5 14H22.5602C24.4654 13.9678 26 12.4129 26 10.5C26 8.567 24.433 7 22.5 7C21.8509 7 21.2432 7.17666 20.7221 7.48451C20.7206 6.92577 20.6357 6.38663 20.4793 5.87885C19.7001 3.62147 17.5567 2 15.0345 2C12.4468 2 10.2578 3.70676 9.5317 6.05595ZM25.1766 15.3059C26.8861 16.5759 28 18.653 28 21C28 24.866 24.9776 28 21.2493 28C21.1658 28 21.0827 27.9984 21 27.9953V28H10.7671V27.9988C10.7143 27.9996 10.6613 28 10.6083 28C4.74949 28 0 23.0751 0 17C0 12.0943 3.09693 7.9387 7.37412 6.52057C7.96691 2.82406 11.1709 0 15.0345 0C18.3494 0 21.1787 2.07884 22.2899 5.00394C22.3596 5.00132 22.4296 5 22.5 5C25.5375 5 28 7.46243 28 10.5C28 12.5659 26.8609 14.3658 25.1766 15.3059ZM21 26H10.7671H10.652H10.6083C5.92179 26 2 22.0395 2 17C2 11.9605 5.92179 8 10.6083 8C14.5839 8 18.0091 10.85 18.9569 14.7911L18.9599 14.7899C19.0937 15.3367 19.1791 15.9037 19.2108 16.4855C19.8339 16.1732 20.5272 16 21.2493 16C23.8053 16 26 18.1696 26 21C26 23.8105 23.8359 25.9695 21.3029 25.9996L21 26Z" fill="url(#paint0_linear_206_1556)"/>
<defs>
<linearGradient id="paint0_linear_206_1556" x1="14" y1="0" x2="14" y2="28" gradientUnits="userSpaceOnUse">
<stop stop-color="#C7C7C7"/>
<stop offset="1" stop-color="#767676"/>
</linearGradient>
</defs>
</svg>
