<svg width="429" height="186" viewBox="0 0 429 186" fill="none" xmlns="http://www.w3.org/2000/svg">
<path d="M21.3567 110L1.95507 50.1711H19.3909L35.7156 101.966H26.9123L44.0917 50.1711H59.6472L75.8864 101.966H67.4249L84.2625 50.1711H100.416L81.0146 110H62.895L49.0489 65.9831H53.9207L39.4763 110H21.3567ZM123.998 110.769C118.528 110.769 113.742 109.744 109.639 107.692C105.593 105.584 102.431 102.735 100.152 99.1453C97.9296 95.4986 96.8185 91.3676 96.8185 86.7522C96.8185 82.1368 97.9012 78.0343 100.066 74.4446C102.289 70.7979 105.337 67.9773 109.212 65.9831C113.086 63.9318 117.445 62.9061 122.289 62.9061C126.847 62.9061 131.006 63.8463 134.767 65.7266C138.528 67.55 141.519 70.2565 143.741 73.8463C145.964 77.436 147.075 81.795 147.075 86.9232C147.075 87.493 147.046 88.1482 146.989 88.889C146.932 89.6297 146.875 90.3135 146.818 90.9402H110.152V82.3933H138.186L132.032 84.7864C132.089 82.6782 131.69 80.8548 130.836 79.3163C130.038 77.7779 128.898 76.5813 127.417 75.7266C125.992 74.8719 124.311 74.4446 122.374 74.4446C120.437 74.4446 118.727 74.8719 117.246 75.7266C115.821 76.5813 114.71 77.8064 113.912 79.4018C113.115 80.9403 112.716 82.7636 112.716 84.8719V87.3505C112.716 89.6297 113.172 91.5955 114.083 93.2479C115.052 94.9003 116.42 96.1824 118.186 97.0941C119.952 97.9488 122.061 98.3761 124.511 98.3761C126.79 98.3761 128.727 98.0627 130.323 97.4359C131.975 96.7522 133.599 95.7265 135.194 94.359L143.741 103.248C141.519 105.698 138.784 107.578 135.536 108.889C132.288 110.142 128.442 110.769 123.998 110.769ZM179.036 110V101.368L177.925 99.2308V83.3334C177.925 80.7693 177.128 78.8035 175.532 77.436C173.994 76.0115 171.515 75.2993 168.096 75.2993C165.874 75.2993 163.623 75.6696 161.344 76.4104C159.065 77.0941 157.128 78.0628 155.532 79.3163L150.062 68.2907C152.683 66.5813 155.817 65.2708 159.464 64.3591C163.168 63.3905 166.843 62.9061 170.49 62.9061C178.011 62.9061 183.823 64.644 187.925 68.1198C192.085 71.5386 194.165 76.9232 194.165 84.2736V110H179.036ZM165.361 110.769C161.658 110.769 158.524 110.142 155.96 108.889C153.396 107.635 151.43 105.926 150.062 103.761C148.752 101.595 148.096 99.1738 148.096 96.4958C148.096 93.6468 148.809 91.1966 150.233 89.1454C151.715 87.0371 153.965 85.4417 156.985 84.3591C160.005 83.2195 163.908 82.6497 168.695 82.6497H179.635V91.1112H170.917C168.296 91.1112 166.444 91.5385 165.361 92.3932C164.336 93.2479 163.823 94.3875 163.823 95.812C163.823 97.2365 164.364 98.3761 165.447 99.2308C166.529 100.086 168.011 100.513 169.891 100.513C171.658 100.513 173.253 100.086 174.678 99.2308C176.159 98.3191 177.242 96.9516 177.925 95.1283L180.148 101.111C179.293 104.302 177.612 106.724 175.105 108.376C172.655 109.972 169.407 110.769 165.361 110.769ZM222.535 110.769C216.609 110.769 211.993 109.316 208.688 106.41C205.384 103.447 203.731 99.0029 203.731 93.077V53.3335H219.97V92.906C219.97 94.5585 220.426 95.869 221.338 96.8377C222.25 97.7493 223.418 98.2052 224.842 98.2052C226.78 98.2052 228.432 97.7208 229.8 96.7522L233.817 108.12C232.449 109.031 230.768 109.687 228.774 110.085C226.78 110.541 224.7 110.769 222.535 110.769ZM196.979 77.5215V65.3848H230.569V77.5215H196.979ZM267.685 62.9061C271.275 62.9061 274.523 63.6469 277.429 65.1284C280.335 66.5529 282.614 68.7751 284.266 71.795C285.976 74.8149 286.831 78.7181 286.831 83.5044V110H270.591V86.1539C270.591 82.8491 269.908 80.4559 268.54 78.9745C267.23 77.436 265.378 76.6668 262.985 76.6668C261.275 76.6668 259.708 77.0656 258.284 77.8634C256.859 78.6041 255.748 79.7722 254.95 81.3676C254.153 82.9631 253.754 85.0428 253.754 87.6069V110H237.515V46.5814H253.754V76.8377L249.993 72.9916C251.759 69.6298 254.181 67.1227 257.258 65.4702C260.335 63.7608 263.811 62.9061 267.685 62.9061ZM319.32 110.769C313.85 110.769 309.063 109.744 304.961 107.692C300.915 105.584 297.753 102.735 295.474 99.1453C293.251 95.4986 292.14 91.3676 292.14 86.7522C292.14 82.1368 293.223 78.0343 295.388 74.4446C297.61 70.7979 300.659 67.9773 304.534 65.9831C308.408 63.9318 312.767 62.9061 317.61 62.9061C322.169 62.9061 326.328 63.8463 330.089 65.7266C333.85 67.55 336.841 70.2565 339.063 73.8463C341.286 77.436 342.397 81.795 342.397 86.9232C342.397 87.493 342.368 88.1482 342.311 88.889C342.254 89.6297 342.197 90.3135 342.14 90.9402H305.474V82.3933H333.508L327.354 84.7864C327.411 82.6782 327.012 80.8548 326.157 79.3163C325.36 77.7779 324.22 76.5813 322.739 75.7266C321.314 74.8719 319.633 74.4446 317.696 74.4446C315.759 74.4446 314.049 74.8719 312.568 75.7266C311.143 76.5813 310.032 77.8064 309.234 79.4018C308.437 80.9403 308.038 82.7636 308.038 84.8719V87.3505C308.038 89.6297 308.494 91.5955 309.405 93.2479C310.374 94.9003 311.741 96.1824 313.508 97.0941C315.274 97.9488 317.382 98.3761 319.833 98.3761C322.112 98.3761 324.049 98.0627 325.645 97.4359C327.297 96.7522 328.921 95.7265 330.516 94.359L339.063 103.248C336.841 105.698 334.106 107.578 330.858 108.889C327.61 110.142 323.764 110.769 319.32 110.769ZM347.32 110V63.6754H362.79V77.1796L360.482 73.3335C361.85 69.8577 364.072 67.2651 367.149 65.5557C370.226 63.7893 373.958 62.9061 378.345 62.9061V77.5215C377.605 77.4075 376.949 77.3505 376.38 77.3505C375.867 77.2936 375.297 77.2651 374.67 77.2651C371.365 77.2651 368.687 78.1767 366.636 80.0001C364.585 81.7665 363.559 84.6724 363.559 88.718V110H347.32ZM184.865 181V121.171H198.797L231.788 161H225.207V121.171H241.788V181H227.856L194.865 141.171H201.446V181H184.865ZM273.64 181.769C268.568 181.769 264.067 180.744 260.135 178.692C256.204 176.641 253.098 173.821 250.819 170.231C248.597 166.584 247.486 162.425 247.486 157.752C247.486 153.08 248.597 148.949 250.819 145.359C253.098 141.769 256.204 138.977 260.135 136.983C264.067 134.932 268.568 133.906 273.64 133.906C278.711 133.906 283.212 134.932 287.144 136.983C291.132 138.977 294.238 141.769 296.46 145.359C298.682 148.949 299.793 153.08 299.793 157.752C299.793 162.425 298.682 166.584 296.46 170.231C294.238 173.821 291.132 176.641 287.144 178.692C283.212 180.744 278.711 181.769 273.64 181.769ZM273.64 168.863C275.52 168.863 277.172 168.436 278.597 167.581C280.078 166.727 281.246 165.473 282.101 163.821C282.956 162.111 283.383 160.088 283.383 157.752C283.383 155.416 282.956 153.45 282.101 151.855C281.246 150.202 280.078 148.949 278.597 148.094C277.172 147.239 275.52 146.812 273.64 146.812C271.816 146.812 270.164 147.239 268.682 148.094C267.258 148.949 266.09 150.202 265.178 151.855C264.323 153.45 263.896 155.416 263.896 157.752C263.896 160.088 264.323 162.111 265.178 163.821C266.09 165.473 267.258 166.727 268.682 167.581C270.164 168.436 271.816 168.863 273.64 168.863ZM314.525 181L298.03 134.675H313.414L326.491 173.393H319.141L332.731 134.675H346.577L359.654 173.393H352.474L365.978 134.675H380.252L363.756 181H348.03L336.919 148.949H341.705L330.252 181H314.525Z" fill="url(#paint0_linear_205_1548)"/>
<path fill-rule="evenodd" clip-rule="evenodd" d="M357.781 0.4375V14.5938H367.219V0.4375H357.781ZM391.445 6.92923L384.367 19.1889L392.54 23.9077L399.618 11.648L391.445 6.92923ZM367.745 99.1171C383.495 96.6041 395.531 82.9577 395.531 66.5C395.531 48.2573 380.743 33.4688 362.5 33.4688C346.123 33.4688 332.529 45.3878 329.92 61.0248L320.579 59.6638C323.848 39.4591 341.372 24.0312 362.5 24.0312C385.955 24.0312 404.969 43.045 404.969 66.5C404.969 88.1544 388.762 106.023 367.817 108.639L367.745 99.1171ZM428.563 61.7812H414.406V71.2188H428.563V61.7812ZM405.093 36.4603L417.352 29.3822L422.071 37.5553L409.812 44.6333L405.093 36.4603ZM332.46 23.9077L325.382 11.648L333.555 6.92923L340.633 19.1889L332.46 23.9077ZM302.929 37.5553L315.189 44.6333L319.907 36.4603L307.648 29.3822L302.929 37.5553ZM384.367 113.812L391.445 126.071L399.618 121.353L392.54 109.093L384.367 113.812ZM417.353 103.618L405.093 96.5396L409.812 88.3667L422.071 95.4448L417.353 103.618Z" fill="url(#paint1_linear_205_1548)"/>
<defs>
<linearGradient id="paint0_linear_205_1548" x1="190" y1="44" x2="190" y2="186" gradientUnits="userSpaceOnUse">
<stop stop-color="#7EB0DF"/>
<stop offset="0.0001" stop-color="#7EB0DF"/>
<stop offset="1" stop-color="#BBDCE7"/>
</linearGradient>
<linearGradient id="paint1_linear_205_1548" x1="362.5" y1="0.4375" x2="362.5" y2="132.562" gradientUnits="userSpaceOnUse">
<stop stop-color="#EFC977"/>
<stop offset="1" stop-color="#E07256"/>
</linearGradient>
</defs>
</svg>
