<svg width="84" height="84" viewBox="0 0 84 84" fill="none" xmlns="http://www.w3.org/2000/svg">
<g clip-path="url(#clip0_2_2)">
<rect width="84" height="84" fill="url(#paint0_linear_2_2)"/>
<path fill-rule="evenodd" clip-rule="evenodd" d="M90.7425 48.5057C90.7425 48.5057 78.8305 40.9646 69.8332 40.9646C57.9318 40.9646 49.9746 51.2493 40.3475 51.2493C29.1276 51.2493 27.7157 48.2774 21.424 48.2774C12.5317 48.2774 0.795189 53.8502 -5.39436 51.8389C-10.3892 50.2158 -16.4024 46.9375 -16.4024 46.9375V74.4648L90.7425 76.1193V48.5057Z" fill="url(#paint1_linear_2_2)"/>
<path fill-rule="evenodd" clip-rule="evenodd" d="M-14.6365 66.8971C-14.6365 66.8971 -14.0933 49.5787 -1.77952 46.8708C8.98668 45.2604 17.2872 57.7596 26.9142 57.7596C38.1341 57.7596 43.4218 50.5057 54.3152 50.5057C62.2603 50.5057 70.0186 56.8123 80.838 54.6262C104.87 49.7706 92.5084 48.9375 92.5084 48.9375V76.4648L-14.6365 78.1193V66.8971Z" fill="url(#paint2_linear_2_2)"/>
<path fill-rule="evenodd" clip-rule="evenodd" d="M-3 68.1811C-3 68.1811 2.29912 61.3112 6.45783 60.6196C10.6166 59.928 12.9183 66.6247 12.9183 66.6247C12.9183 66.6247 14.8654 66.3318 15.9229 66.6247C16.9805 66.9177 17.8179 68.1811 17.8179 68.1811C17.8179 68.1811 19.1649 64.1457 24.7581 64.1457C30.3512 64.1457 33.1929 69.5975 33.1929 69.5975C33.1929 69.5975 35.0546 68.1811 36.9935 68.1811C38.9323 68.1811 41.1269 69.5975 41.1269 69.5975C41.1269 69.5975 42.4965 64.1457 48.2753 64.1457C54.0541 64.1457 56.5192 68.7723 56.5192 68.7723C56.5192 68.7723 58.8541 67.3512 61.1228 67.3512C63.3915 67.3512 66.0988 68.7723 66.0988 68.7723C66.0988 68.7723 66.8585 64.2837 70.2379 61.6381C73.6173 58.9925 80.9753 60.6196 80.9753 60.6196L85 62.6633V84H-3V68.1811Z" fill="url(#paint3_linear_2_2)"/>
<circle cx="52" cy="20" r="7" fill="#FEFFCA"/>
</g>
<defs>
<linearGradient id="paint0_linear_2_2" x1="0" y1="0" x2="0" y2="84" gradientUnits="userSpaceOnUse">
<stop stop-color="#A2E9FF"/>
<stop offset="0.552083" stop-color="#DDFDFF"/>
</linearGradient>
<linearGradient id="paint1_linear_2_2" x1="90.7425" y1="40.9646" x2="90.7425" y2="76.1193" gradientUnits="userSpaceOnUse">
<stop stop-color="#AAF3FA"/>
<stop offset="1" stop-color="#D5FAFD"/>
</linearGradient>
<linearGradient id="paint2_linear_2_2" x1="-14.6365" y1="46.7275" x2="-14.6365" y2="78.1193" gradientUnits="userSpaceOnUse">
<stop stop-color="#7EDEE7"/>
<stop offset="1" stop-color="#B5F1F5"/>
</linearGradient>
<linearGradient id="paint3_linear_2_2" x1="-3" y1="60" x2="-3" y2="84" gradientUnits="userSpaceOnUse">
<stop stop-color="#4297A8"/>
<stop offset="1" stop-color="#77C8D3"/>
</linearGradient>
<clipPath id="clip0_2_2">
<rect width="84" height="84" fill="white"/>
</clipPath>
</defs>
</svg>
