<svg width="375" height="220" viewBox="0 0 375 220" fill="none" xmlns="http://www.w3.org/2000/svg">
<g clip-path="url(#clip0_407_3441)">
<path d="M388.393 116.548C388.393 177.299 265.887 233.69 162.946 233.69C60.0057 233.69 -51.27 96.7034 -51.27 35.9521C-51.27 -24.7992 247.506 -19.6429 350.447 -19.6429C453.387 -19.6429 388.393 55.7963 388.393 116.548Z" fill="url(#paint0_linear_407_3441)"/>
<ellipse cx="286" cy="58" rx="21" ry="20" fill="#C0CFFC"/>
<path fill-rule="evenodd" clip-rule="evenodd" d="M400.636 134.99C400.636 134.99 347.458 115.24 307.291 115.24C254.16 115.24 218.636 142.176 175.659 142.176C125.57 142.176 119.267 134.393 91.1788 134.393C51.4808 134.393 -0.914308 148.988 -28.5462 143.72C-50.8447 139.469 -77.6891 130.883 -77.6891 130.883V202.979L400.636 207.312V134.99Z" fill="#5F83ED"/>
<path fill-rule="evenodd" clip-rule="evenodd" d="M-69.8057 183.158C-69.8057 183.158 -67.3808 137.801 -12.4086 130.709C35.6548 126.491 72.7105 159.227 115.688 159.227C165.777 159.227 189.383 140.229 238.014 140.229C273.484 140.229 308.119 156.746 356.419 151.02C463.703 138.303 408.519 136.121 408.519 136.121V208.217L-69.8057 212.55V183.158Z" fill="#5462DC"/>
<path fill-rule="evenodd" clip-rule="evenodd" d="M0 178.104C0 178.104 23.0764 159.909 41.1866 158.077C59.2968 156.245 69.3202 173.982 69.3202 173.982C69.3202 173.982 77.7993 173.206 82.4047 173.982C87.0101 174.758 90.6569 178.104 90.6569 178.104C90.6569 178.104 96.5226 167.416 120.88 167.416C145.237 167.416 157.611 181.855 157.611 181.855C157.611 181.855 165.719 178.104 174.162 178.104C182.605 178.104 192.162 181.855 192.162 181.855C192.162 181.855 198.126 167.416 223.291 167.416C248.457 167.416 259.191 179.669 259.191 179.669C259.191 179.669 269.359 175.906 279.239 175.906C289.119 175.906 300.908 179.669 300.908 179.669C300.908 179.669 304.217 167.782 318.933 160.775C333.65 153.768 365.692 158.077 365.692 158.077L383.219 163.49V220H0V178.104Z" fill="url(#paint1_linear_407_3441)"/>
</g>
<defs>
<linearGradient id="paint0_linear_407_3441" x1="1.04027" y1="2.18685e-05" x2="1.04027" y2="220" gradientUnits="userSpaceOnUse">
<stop stop-color="#195BD1"/>
<stop offset="1" stop-color="#6778FA"/>
</linearGradient>
<linearGradient id="paint1_linear_407_3441" x1="-52.1902" y1="156.436" x2="-52.1902" y2="237.313" gradientUnits="userSpaceOnUse">
<stop stop-color="#2E63DC"/>
<stop offset="1" stop-color="#431C71"/>
</linearGradient>
<clipPath id="clip0_407_3441">
<rect width="375" height="220" fill="white"/>
</clipPath>
</defs>
</svg>
